<svg xmlns="http://www.w3.org/2000/svg" viewBox="0 0 99.989 99.989">
  <defs>
    <style>
      .cls-1 {
        fill: #007fcc;
      }
    </style>
  </defs>
  <g id="ai-based" transform="translate(0)">
    <path id="Path_346" data-name="Path 346" class="cls-1" d="M51.607,58.058h25.8V54.833h-25.8V45.156h3.225V41.931H51.607V35.48H70.96V32.255H51.607V14.515A14.5,14.5,0,0,0,23.946,8.4l-.076.017A17.787,17.787,0,0,0,9.676,25.8a17.48,17.48,0,0,0,1.029,5.928A20.938,20.938,0,0,0,8.97,67.179,16.1,16.1,0,0,0,22.578,91.926c.485,0,.979-.026,1.488-.076a14.506,14.506,0,0,0,27.541-6.375V67.735H62.9V64.509H51.607ZM48.382,85.475A11.282,11.282,0,0,1,26.56,89.508l-.475-1.239L24.78,88.5a12.667,12.667,0,0,1-2.2.2,12.9,12.9,0,0,1,0-25.8V59.671a16.072,16.072,0,0,0-11.594,4.944,17.685,17.685,0,0,1,2.455-30.666l1.445-.679-.665-1.451A14.384,14.384,0,0,1,12.9,25.8a14.554,14.554,0,0,1,9.9-13.75,14.264,14.264,0,0,0,1.717,9.718l2.792-1.614a11.29,11.29,0,1,1,21.069-5.643Zm0,0"/>
    <path id="Path_347" data-name="Path 347" class="cls-1" d="M184,428.838v3.225A8.073,8.073,0,0,0,192.064,424h-3.225A4.844,4.844,0,0,1,184,428.838Zm0,0" transform="translate(-146.907 -338.525)"/>
    <path id="Path_348" data-name="Path 348" class="cls-1" d="M67.225,376H64a9.686,9.686,0,0,0,9.676,9.676v-3.225A6.457,6.457,0,0,1,67.225,376Zm0,0" transform="translate(-51.098 -300.202)"/>
    <path id="Path_349" data-name="Path 349" class="cls-1" d="M352.191,334.811v-6.748A8.073,8.073,0,0,0,344.127,320H328v3.225h16.127a4.844,4.844,0,0,1,4.838,4.838v6.748a4.838,4.838,0,1,0,3.225,0Zm-1.613,6.154a1.613,1.613,0,1,1,1.613-1.613A1.616,1.616,0,0,1,350.578,340.965Zm0,0" transform="translate(-261.878 -255.491)"/>
    <path id="Path_350" data-name="Path 350" class="cls-1" d="M414.515,256a4.832,4.832,0,0,0-4.541,3.225H400v3.225h9.973A4.83,4.83,0,1,0,414.515,256Zm0,6.451a1.613,1.613,0,1,1,1.613-1.613A1.616,1.616,0,0,1,414.515,262.451Zm0,0" transform="translate(-319.363 -204.393)"/>
    <path id="Path_351" data-name="Path 351" class="cls-1" d="M320.551,195.225H288v3.225h32.551a4.838,4.838,0,1,0,0-3.225Zm4.541,0a1.613,1.613,0,1,1-1.613,1.613A1.616,1.616,0,0,1,325.093,195.225Zm0,0" transform="translate(-229.942 -153.294)"/>
    <path id="Path_352" data-name="Path 352" class="cls-1" d="M384.127,72.127V65.38a4.838,4.838,0,1,0-3.225,0v6.748a4.845,4.845,0,0,1-4.838,4.838H368v3.225h8.064A8.073,8.073,0,0,0,384.127,72.127Zm-1.613-12.9a1.613,1.613,0,1,1-1.613,1.613A1.616,1.616,0,0,1,382.515,59.225Zm0,0" transform="translate(-293.814 -44.711)"/>
    <path id="Path_353" data-name="Path 353" class="cls-1" d="M77.691,197.694a8.073,8.073,0,0,0,0,11.4l2.281-2.281a4.839,4.839,0,0,1,6.843-6.843l2.281-2.281A8.074,8.074,0,0,0,77.691,197.694Zm0,0" transform="translate(-60.147 -155.958)"/>
    <path id="Path_354" data-name="Path 354" class="cls-1" d="M152.064,32A8.073,8.073,0,0,0,144,40.064h3.225a4.838,4.838,0,1,1,9.676,0h3.225A8.073,8.073,0,0,0,152.064,32Zm0,0" transform="translate(-114.971 -25.549)"/>
    <path id="Path_355" data-name="Path 355" class="cls-1" d="M184.064,152.064A8.073,8.073,0,0,0,176,144v3.225a4.838,4.838,0,1,1,0,9.676v3.225A8.073,8.073,0,0,0,184.064,152.064Zm0,0" transform="translate(-140.52 -114.971)"/>
    <path id="Path_356" data-name="Path 356" class="cls-1" d="M136,320.064a8.073,8.073,0,0,0,8.064,8.064V324.9a4.838,4.838,0,0,1,0-9.676V312A8.073,8.073,0,0,0,136,320.064Zm0,0" transform="translate(-108.584 -249.104)"/>
  </g>
</svg>
