<?xml version="1.0" encoding="iso-8859-1"?>
<!-- Generator: Adobe Illustrator 21.0.0, SVG Export Plug-In . SVG Version: 6.00 Build 0)  -->
<svg xmlns="http://www.w3.org/2000/svg" xmlns:xlink="http://www.w3.org/1999/xlink" version="1.1" id="Capa_1" x="0px" y="0px" viewBox="0 0 513 513" style="enable-background:new 0 0 513 513;" xml:space="preserve" width="512px" height="512px">
<g id="XMLID_339_">
	<path id="XMLID_340_" d="M270.637,372.507c-23.791,0-43.146,19.355-43.146,43.146h30c0-7.249,5.897-13.146,13.146-13.146   s13.146,5.897,13.146,13.146h30C313.783,391.863,294.428,372.507,270.637,372.507z" fill="#007fcc"/>
	<path id="XMLID_342_" d="M336.479,237.408c-24.24,0.665-43.961,21.226-43.961,45.833v21.104c0,5.605-4.56,10.165-10.165,10.165   h-10.67v30h10.67c22.147,0,40.165-18.018,40.165-40.165v-21.104c0-8.513,6.632-15.621,14.783-15.845   c4.162-0.103,8.081,1.416,11.051,4.304c2.972,2.892,4.608,6.767,4.608,10.912h30c0-12.314-4.861-23.825-13.688-32.414   C360.447,241.612,348.795,237.064,336.479,237.408z" fill="#007fcc"/>
	<path id="XMLID_361_" d="M439.742,242.4v-6.93c0-93.245-75.86-169.105-169.105-169.105h-0.363   c-6.694,0.006-14.994,0.008-22.912,0.555C228.639,27.401,188.368,0,141.812,0C77.449,0,25.086,52.363,25.086,116.725   c0,50.132,31.77,92.98,76.233,109.478c0.028,1.19,0.213,16.197,0.213,16.197c-27.168,3.69-48.172,27.039-48.172,55.203   c0,28.244,21.125,51.646,48.405,55.234C106.43,441.942,180.391,513,270.637,513s164.207-71.058,168.872-160.163   c27.28-3.587,48.405-26.99,48.405-55.234C487.914,269.439,466.91,246.09,439.742,242.4z M55.086,116.725   C55.086,68.905,93.991,30,141.812,30s86.725,38.905,86.725,86.725s-38.904,86.725-86.725,86.725S55.086,164.545,55.086,116.725z    M432.203,323.314h-22.461v20.581C409.742,420.598,347.34,483,270.637,483s-139.105-62.402-139.105-139.105v-20.581H109.07   c-14.177,0-25.711-11.534-25.711-25.711c0-11.555,7.662-21.351,18.172-24.581v27.929h30c0,0-0.012-67.11-0.028-67.961   c3.398,0.299,6.834,0.46,10.308,0.46c64.362,0,116.725-52.363,116.725-116.725c0-6.897-0.606-13.655-1.759-20.227   c4.695-0.131,9.426-0.132,13.495-0.133h0.364c76.703,0,139.105,62.402,139.105,139.105v64.667h30v-27.115   c10.509,3.23,18.172,13.027,18.172,24.581C457.914,311.78,446.38,323.314,432.203,323.314z" fill="#007fcc"/>
	<rect id="XMLID_1241_" x="169.506" y="256.921" width="66.497" height="30" fill="#007fcc"/>
	<polygon id="XMLID_1242_" points="175.613,171.741 196.826,150.528 163.024,116.725 196.826,82.923 175.613,61.71 141.811,95.512    108.009,61.71 86.796,82.923 120.598,116.725 86.796,150.528 108.009,171.741 141.811,137.938  " fill="#007fcc"/>
</g>















</svg>
