<svg xmlns="http://www.w3.org/2000/svg" viewBox="0 0 145.334 106.187">
  <defs>
    <style>
      .cls-1 {
        fill: #666;
      }

      .cls-2, .cls-4 {
        fill: none;
      }

      .cls-2 {
        stroke: #666;
        stroke-width: 2px;
      }

      .cls-3 {
        stroke: none;
      }
    </style>
  </defs>
  <g id="icon-smart-attendance-input" transform="translate(-566 -1690)">
    <g id="classroom-with-students-group-and-the-teacher" transform="translate(573.83 1698.808)">
      <g id="Group_255" data-name="Group 255" transform="translate(0)">
        <path id="Path_246" data-name="Path 246" class="cls-1" d="M15.2,13.993l.473-2.483-2.969.85L11.333,9.5,8.8,12.141,6.831,9.864l-.924,3L2.754,11.839l1.191,2.654-2.295.644,1.927,1.747a6.622,6.622,0,0,0-.215.832,7.024,7.024,0,0,0-.092,1.1,6.681,6.681,0,1,0,12.993-2.1l1.353-1.87Z" transform="translate(4.367 32.089)"/>
        <path id="Path_247" data-name="Path 247" class="cls-1" d="M6.127,28.516V29.61H8.5V43.572h4.782V29.61h2.658V43.572h4.787V29.61H22.9V28.516H21.476L21.3,26.269h5.627V44.4h1.55V26.269h2.391V23.085H21.06l-.009-.127,1.756-9.577H17.9s-.911,2.807-3.429,2.956-3.468-2.956-3.468-2.956H7.033L8.351,21.9l-.083,1.182H.276v3.184H2.19V44.4H3.744V26.269h4.3L7.9,28.516H6.127Zm12.752-9.652-.674,1.59a.485.485,0,0,0-.1-.031c-.5.009-.9.552-.889,1.217a1.466,1.466,0,0,0,.188.683l-.32.758H11.763l-.219-.617a1.441,1.441,0,0,0,.258-.841c0-.661-.4-1.2-.907-1.2-.026,0-.048.018-.079.022l-.565-1.585,8.627,0Z" transform="translate(-0.276 45.218)"/>
        <path id="Path_260" data-name="Path 260" class="cls-1" d="M6.127,28.516V29.61H8.5V43.572h4.782V29.61h2.658V43.572h4.787V29.61H22.9V28.516H21.476L21.3,26.269h5.627V44.4h1.55V26.269h2.391V23.085H21.06l-.009-.127,1.756-9.577H17.9s-.911,2.807-3.429,2.956-3.468-2.956-3.468-2.956H7.033L8.351,21.9l-.083,1.182H.276v3.184H2.19V44.4H3.744V26.269h4.3L7.9,28.516H6.127Zm12.752-9.652-.674,1.59a.485.485,0,0,0-.1-.031c-.5.009-.9.552-.889,1.217a1.466,1.466,0,0,0,.188.683l-.32.758H11.763l-.219-.617a1.441,1.441,0,0,0,.258-.841c0-.661-.4-1.2-.907-1.2-.026,0-.048.018-.079.022l-.565-1.585,8.627,0Z" transform="translate(82.912 45.218)"/>
        <path id="Path_248" data-name="Path 248" class="cls-1" d="M34.267,14.342l.473-2.483L31.77,12.7,30.4,9.845,27.869,12.49,25.9,10.208l-.92,3.013L21.83,12.192l1.187,2.658-2.29.644,1.922,1.743a7.473,7.473,0,0,0-.215.832,7.079,7.079,0,0,0-.088,1.1,6.676,6.676,0,1,0,13.352,0,6.781,6.781,0,0,0-.363-2.1L36.688,15.2Z" transform="translate(68.83 33.269)"/>
        <path id="Path_249" data-name="Path 249" class="cls-1" d="M39.683,55.8V36.366h2.557V32.954H31.665V30.392l.876-4.2c.145-1.055.328-2.654.4-4.309.127-2.82.547-11.771-7.572-11.771s-7.9,7.475-7.9,7.475l.6,9.7.911,3.552v2.12H9.449v3.407h1.922V55.8H13.1V36.366h6.21l.823,2.409H15.716v1.169h5.071L20.721,52.81h-.285V54.2H23.7V52.81h-.188l.582-12.866h1.774l.508,12.866h-.2V54.2h3.263V52.81h-.324v-.653s-.018-9.455-.022-12.209h4.616V38.779H29.493l1.025-2.409h7.44V55.805l1.725,0ZM27.229,23.53v2.282h.009l.819.39-.731,1.318h1.813l-.228,4.629a.754.754,0,0,0-.293-.066,1.065,1.065,0,0,0-.924.88H23.226c-.114-.587-.482-1.025-.942-1.025-.053,0-.105.013-.162.018l-.486-4.432h2.1l-.771-1.463.639-.162V23.46a6.459,6.459,0,0,1-4.55-6.157,6.2,6.2,0,0,1,.061-.639c1.791-.123,7.826-.679,7.983-2.645.578,1.069,3.626,3.74,4.857,3.941A6.446,6.446,0,0,1,27.229,23.53Z" transform="translate(30.722 34.171)"/>
        <path id="Path_250" data-name="Path 250" class="cls-1" d="M17.531,9.3a4.729,4.729,0,0,0-.162.617,4.986,4.986,0,0,0-.07.815,4.927,4.927,0,1,0,9.853,0,4.784,4.784,0,0,0-.272-1.55l1-1.379L26.092,7.17l.35-1.831-2.19.626L23.246,3.855,21.371,5.8,19.93,4.122l-.688,2.216L16.922,5.58l.871,1.958-1.69.473Z" transform="translate(53.207 13.027)"/>
        <path id="Path_251" data-name="Path 251" class="cls-1" d="M30.593,16.219H34.74V29.584h1.147V16.219h1.76V13.871H30.413v-.092L31.7,6.72H28.092S27.418,8.791,25.565,8.9,23.008,6.72,23.008,6.72H20.082l.972,6.293-.066.863h-5.9v2.347H16.5V29.588h1.147V16.219h3.179l-.114,1.655H19.408v.806H21.16v10.3h3.53V18.68h1.958v10.3h3.53V18.68h1.6v-.806H30.724Zm-2.282-4.292c-.026,0-.048-.018-.074-.018-.368,0-.661.407-.657.9a1.04,1.04,0,0,0,.14.5l-.236.561H23.559l-.166-.455a1.071,1.071,0,0,0,.193-.622c0-.486-.3-.885-.666-.885-.018,0-.039.013-.057.013l-.416-1.169h6.367Z" transform="translate(49.784 22.709)"/>
        <path id="Path_252" data-name="Path 252" class="cls-1" d="M27.308,9.3a3.991,3.991,0,0,0-.162.617,4.931,4.931,0,1,0,9.512-.74l1-1.379-1.8-.631.35-1.831-2.19.626L33.014,3.854,31.148,5.8,29.694,4.121,29.02,6.337,26.7,5.579l.876,1.958L25.88,8.01Z" transform="translate(86.246 13.024)"/>
        <path id="Path_253" data-name="Path 253" class="cls-1" d="M37.87,6.718A3.192,3.192,0,0,1,35.339,8.9C33.482,9,32.781,6.718,32.781,6.718H29.856L30.828,13l-.066.871H24.868v2.352h1.41V29.6h1.147V16.225H30.6l-.109,1.651H29.186v.81h1.747v10.3h3.534v-10.3h1.958v10.3h3.53v-10.3h1.6v-.81H40.5l-.127-1.651h4.147V29.6h1.147V16.225h1.76V13.874H40.2l-.009-.092,1.292-7.064H37.87Zm.215,5.216a.371.371,0,0,0-.074-.018c-.368,0-.661.407-.653.9a1.057,1.057,0,0,0,.145.5l-.245.556H33.333l-.162-.455a1.039,1.039,0,0,0,.188-.622c0-.486-.293-.885-.666-.885-.022,0-.035.013-.057.018l-.425-1.169h6.363Z" transform="translate(82.826 22.702)"/>
        <path id="Path_254" data-name="Path 254" class="cls-1" d="M6.921,37.745h1.27V23.412h4.581l.609,1.774H10.122v.863h3.74l-.048,9.485h-.206v1.029h2.4V35.533h-.145l.429-9.485h1.309l.372,9.485H17.83v1.029h2.4V35.533H20v-.482s-.013-6.972-.013-9h3.4v-.863H20.278l.753-1.774h5.487V37.741h1.27V23.412h1.887V20.9h-7.8V19.006l.648-3.1c.105-.771.241-1.953.293-3.175.092-2.08.4-8.68-5.584-8.68a5.369,5.369,0,0,0-5.82,5.513l.438,7.147.67,2.623V20.9H5.5v2.514H6.921V37.745ZM12.636,8.877c1.318-.088,5.772-.5,5.886-1.944.425.784,2.676,2.755,3.582,2.9a4.771,4.771,0,0,1-3.49,4.112v1.677h.009l.6.285-.547.977h1.336L19.848,20.3a.5.5,0,0,0-.215-.048.785.785,0,0,0-.683.648H15.662c-.088-.434-.363-.758-.7-.758a1.085,1.085,0,0,0-.118.013l-.359-3.267h1.55L15.469,15.8l.473-.118v-1.8a4.757,4.757,0,0,1-3.35-4.537C12.592,9.188,12.623,9.035,12.636,8.877Z" transform="translate(17.384 13.689)"/>
        <path id="Path_255" data-name="Path 255" class="cls-1" d="M13.025,4.314A4.394,4.394,0,0,0,12.9,4.8a3.9,3.9,0,1,0,7.751.644,3.8,3.8,0,0,0-.215-1.226l.793-1.095-1.414-.5.276-1.45-1.739.5L17.553,0l-1.48,1.546L14.926.215l-.539,1.756-1.839-.6.692,1.55L11.9,3.293Z" transform="translate(39.018)"/>
        <path id="Path_256" data-name="Path 256" class="cls-1" d="M12.214,20.381h.907V9.8h2.514l-.088,1.309H14.513v.639H15.9V19.9H18.7V11.74h1.55v8.154H23.04V11.74h1.27v-.635h-.832l-.1-1.309h3.284V20.381h.907V9.8h1.4V7.935H23.237l-.009-.079,1.025-5.588h-2.86s-.534,1.642-2,1.73-2.028-1.73-2.028-1.73H15.052l.762,4.979-.044.692H11.1V9.8h1.117l0,10.58ZM21.963,5.469l-.394.928c-.022,0-.035-.013-.057-.013-.289,0-.521.324-.517.709a.83.83,0,0,0,.109.4l-.184.447h-3.1l-.131-.363a.838.838,0,0,0,.153-.49c0-.39-.236-.705-.53-.705a.167.167,0,0,0-.044.013l-.333-.924Z" transform="translate(36.308 7.664)"/>
        <path id="Path_257" data-name="Path 257" class="cls-1" d="M3.142,4.314a4.383,4.383,0,0,0-.123.486,3.9,3.9,0,1,0,7.532-.582l.793-1.095-1.419-.5.276-1.45-1.734.5L7.675,0,6.19,1.546,5.047.21,4.5,1.966l-1.839-.6.692,1.555-1.336.377Z" transform="translate(5.621)"/>
        <path id="Path_258" data-name="Path 258" class="cls-1" d="M2.335,20.381h.907V9.8H5.759l-.092,1.309H4.638v.639H6.026V19.9H8.82V11.74h1.55v8.154h2.794V11.74h1.27v-.635H13.6L13.493,9.8h3.284V20.381h.911V9.8h1.393V7.935H13.353l-.009-.079,1.025-5.588h-2.86S10.975,3.91,9.5,4s-2.019-1.73-2.019-1.73H5.164l.771,4.979-.048.688H1.218V9.8H2.335ZM12.079,5.469l-.394.924c-.022,0-.035-.013-.057-.013a.637.637,0,0,0-.521.709.787.787,0,0,0,.114.4l-.188.447h-3.1L7.8,7.571a.808.808,0,0,0,.153-.49c0-.39-.236-.705-.526-.705a.2.2,0,0,0-.048.013l-.337-.92Z" transform="translate(2.907 7.664)"/>
        <path id="Path_259" data-name="Path 259" class="cls-1" d="M21.678,27.521h1V16.17h3.626l.482,1.406H24.213v.683h2.96l-.035,7.51h-.166v.815h1.9V25.77h-.109l.342-7.51h1.034l.293,7.51h-.114v.815h1.909V25.77h-.188v-.381c-.009,0-.018-5.518-.018-7.125h2.7V17.58H32.267l.591-1.406h4.349V27.521h1V16.17h1.5V14.182H33.532v-1.5l.512-2.452c.088-.617.193-1.55.236-2.514.074-1.647.32-6.875-4.423-6.875a4.258,4.258,0,0,0-4.616,4.366l.35,5.658.53,2.076v1.239H20.561v1.993h1.125V27.521Zm4.528-22.86c1.047-.07,4.568-.394,4.664-1.541a7.054,7.054,0,0,0,2.833,2.3,3.777,3.777,0,0,1-2.768,3.254V10h.009l.469.232L30.984,11h1.06l-.136,2.706a.441.441,0,0,0-.166-.039.625.625,0,0,0-.543.512H28.593c-.066-.346-.276-.6-.547-.6a.6.6,0,0,0-.092.009L27.669,11h1.226l-.455-.854.372-.092V8.634a3.768,3.768,0,0,1-2.654-3.6C26.166,4.907,26.193,4.789,26.206,4.662Z" transform="translate(68.272 2.849)"/>
      </g>
    </g>
    <g id="Rectangle_93" data-name="Rectangle 93" class="cls-2" transform="translate(566 1690)">
      <rect class="cls-3" width="145.334" height="106.187"/>
      <rect class="cls-4" x="1" y="1" width="143.334" height="104.187"/>
    </g>
  </g>
</svg>
