<?xml version="1.0" encoding="UTF-8" standalone="no" ?>
<!DOCTYPE svg PUBLIC "-//W3C//DTD SVG 1.1//EN" "http://www.w3.org/Graphics/SVG/1.1/DTD/svg11.dtd">
<svg xmlns="http://www.w3.org/2000/svg" xmlns:xlink="http://www.w3.org/1999/xlink" version="1.1" width="952.742578125" height="182.38183999999998" xml:space="preserve">
<desc>Created with Fabric.js 1.6.0-rc.1</desc>
<defs></defs>
  <g transform="translate(288.32 105) scale(2.2 2.62)">
   <text font-family="Arial" font-size="40" font-weight="bold" style="stroke: none; stroke-width: 1; stroke-dasharray: none; stroke-linecap: butt; stroke-linejoin: miter; stroke-miterlimit: 10; fill: #6a6f73; fill-rule: nonzero; opacity: 1;" ><tspan x="-65.56" y="8.98" style="stroke: none; stroke-width: 0; stroke-dasharray: none; stroke-linecap: butt; stroke-linejoin: miter; stroke-miterlimit: 4; fill: #6a6f73; fill-rule: ; opacity: 1;">D</tspan><tspan x="-36.67" y="8.98" style="stroke: none; stroke-width: 0; stroke-dasharray: none; stroke-linecap: butt; stroke-linejoin: miter; stroke-miterlimit: 4; fill: #6a6f73; fill-rule: ; opacity: 1;">A</tspan><tspan x="-9.99" y="8.98" style="stroke: none; stroke-width: 0; stroke-dasharray: none; stroke-linecap: butt; stroke-linejoin: miter; stroke-miterlimit: 4; fill: #6a6f73; fill-rule: ; opacity: 1;">I</tspan><tspan x="1.12" y="8.98" style="stroke: none; stroke-width: 0; stroke-dasharray: none; stroke-linecap: butt; stroke-linejoin: miter; stroke-miterlimit: 4; fill: #6a6f73; fill-rule: ; opacity: 1;">I</tspan><tspan x="12.24" y="8.98" style="stroke: none; stroke-width: 0; stroke-dasharray: none; stroke-linecap: butt; stroke-linejoin: miter; stroke-miterlimit: 4; fill: #6a6f73; fill-rule: ; opacity: 1;">C</tspan><tspan x="41.12" y="8.98" style="stroke: none; stroke-width: 0; stroke-dasharray: none; stroke-linecap: butt; stroke-linejoin: miter; stroke-miterlimit: 4; fill: #6a6f73; fill-rule: ; opacity: 1;">T</tspan></text>
 </g>
  <g transform="translate(700.08 105.01) scale(2.41 2.62)">
   <text font-family="Arial" font-size="40" font-weight="normal" style="stroke: none; stroke-width: 1; stroke-dasharray: none; stroke-linecap: butt; stroke-linejoin: miter; stroke-miterlimit: 10; fill: #68ddf2; fill-rule: nonzero; opacity: 1;" ><tspan x="-101.19" y="8.98" style="stroke: none; stroke-width: 0; stroke-dasharray: none; stroke-linecap: butt; stroke-linejoin: miter; stroke-miterlimit: 4; fill: #68ddf2; fill-rule: ; opacity: 1;">A</tspan><tspan x="-74.51" y="8.98" style="stroke: none; stroke-width: 0; stroke-dasharray: none; stroke-linecap: butt; stroke-linejoin: miter; stroke-miterlimit: 4; fill: #68ddf2; fill-rule: ; opacity: 1;">t</tspan><tspan x="-63.4" y="8.98" style="stroke: none; stroke-width: 0; stroke-dasharray: none; stroke-linecap: butt; stroke-linejoin: miter; stroke-miterlimit: 4; fill: #68ddf2; fill-rule: ; opacity: 1;">t</tspan><tspan x="-52.29" y="8.98" style="stroke: none; stroke-width: 0; stroke-dasharray: none; stroke-linecap: butt; stroke-linejoin: miter; stroke-miterlimit: 4; fill: #68ddf2; fill-rule: ; opacity: 1;">e</tspan><tspan x="-30.04" y="8.98" style="stroke: none; stroke-width: 0; stroke-dasharray: none; stroke-linecap: butt; stroke-linejoin: miter; stroke-miterlimit: 4; fill: #68ddf2; fill-rule: ; opacity: 1;">n</tspan><tspan x="-7.79" y="8.98" style="stroke: none; stroke-width: 0; stroke-dasharray: none; stroke-linecap: butt; stroke-linejoin: miter; stroke-miterlimit: 4; fill: #68ddf2; fill-rule: ; opacity: 1;">d</tspan><tspan x="14.45" y="8.98" style="stroke: none; stroke-width: 0; stroke-dasharray: none; stroke-linecap: butt; stroke-linejoin: miter; stroke-miterlimit: 4; fill: #68ddf2; fill-rule: ; opacity: 1;">a</tspan><tspan x="36.7" y="8.98" style="stroke: none; stroke-width: 0; stroke-dasharray: none; stroke-linecap: butt; stroke-linejoin: miter; stroke-miterlimit: 4; fill: #68ddf2; fill-rule: ; opacity: 1;">n</tspan><tspan x="58.95" y="8.98" style="stroke: none; stroke-width: 0; stroke-dasharray: none; stroke-linecap: butt; stroke-linejoin: miter; stroke-miterlimit: 4; fill: #68ddf2; fill-rule: ; opacity: 1;">c</tspan><tspan x="78.95" y="8.98" style="stroke: none; stroke-width: 0; stroke-dasharray: none; stroke-linecap: butt; stroke-linejoin: miter; stroke-miterlimit: 4; fill: #68ddf2; fill-rule: ; opacity: 1;">e</tspan></text>
 </g>
<g style="stroke: none; stroke-width: 1; stroke-dasharray: none; stroke-linecap: butt; stroke-linejoin: miter; stroke-miterlimit: 10; fill: none; fill-rule: nonzero; opacity: 1;" transform="translate(10 10) scale(0.25 0.25)" >
  <polygon points="331.29,338.8 316.24,331.27 165.65,331.27 150.59,338.8 240.94,481.88 " style="stroke: none; stroke-width: 1; stroke-dasharray: none; stroke-linecap: butt; stroke-linejoin: miter; stroke-miterlimit: 10; fill: #E0E0E0; fill-rule: nonzero; opacity: 1;" transform="  matrix(1 0 0 1 0 0) "/>
  <path d="M 353.882 165.647 c -7.529 0 -7.529 8.365 -7.529 8.365 v -8.365 c -0.015 -8.011 -0.151 -15.706 -0.497 -23.063 c -30.441 -29.628 -104.915 -29.643 -104.915 -29.643 s -74.473 0.015 -104.907 29.651 c -0.361 7.349 -0.489 15.044 -0.504 23.055 v 60.213 l 30.118 75.294 l 38.438 30.088 c 4.284 4.819 10.421 7.56 16.866 7.56 h 19.991 h 19.983 c 6.453 0 12.589 -2.748 16.866 -7.56 l 38.445 -30.088 l 24.147 -60.363 c 21.346 -1.536 28.559 -33.913 28.559 -58.406 C 368.941 174.012 361.412 165.647 353.882 165.647 z" style="stroke: none; stroke-width: 1; stroke-dasharray: none; stroke-linecap: butt; stroke-linejoin: miter; stroke-miterlimit: 10; fill: #F8E0C2; fill-rule: nonzero; opacity: 1;" transform=" matrix(1 0 0 1 0 0) " stroke-linecap="round" />
  <path d="M 135.529 165.647 v 8.365 c 0 0 0 -8.365 -7.529 -8.365 c -7.529 0 -15.059 8.365 -15.059 16.738 c 0 24.486 7.213 56.87 28.559 58.406 l 24.147 60.363 l 38.438 30.088 c 4.284 4.819 10.421 7.56 16.866 7.56 h 19.991 v -225.86 c 0 0 -74.473 0.015 -104.907 29.651 C 135.672 149.941 135.544 157.636 135.529 165.647 z" style="stroke: none; stroke-width: 1; stroke-dasharray: none; stroke-linecap: butt; stroke-linejoin: miter; stroke-miterlimit: 10; fill: #FCF1E3; fill-rule: nonzero; opacity: 1;" transform=" matrix(1 0 0 1 0 0) " stroke-linecap="round" />
  <path d="M 203.294 255.977 h 75.294 c 0 0 0 22.588 -37.647 22.588 S 203.294 255.977 203.294 255.977 z" style="stroke: none; stroke-width: 1; stroke-dasharray: none; stroke-linecap: butt; stroke-linejoin: miter; stroke-miterlimit: 10; fill: #E57373; fill-rule: nonzero; opacity: 1;" transform=" matrix(1 0 0 1 0 0) " stroke-linecap="round" />
  <path d="M 286.118 183.13 c 8.968 0 16.926 2.003 22.438 5.105 c 0.535 -4.284 -1.295 -8.689 -5.632 -11.972 c -7.748 -5.88 -20.337 -5.88 -28.1 0 c -3.494 2.65 -5.338 6.031 -5.67 9.487 C 273.988 184.102 279.823 183.13 286.118 183.13 z" style="stroke: none; stroke-width: 1; stroke-dasharray: none; stroke-linecap: butt; stroke-linejoin: miter; stroke-miterlimit: 10; fill: #212121; fill-rule: nonzero; opacity: 1;" transform=" matrix(1 0 0 1 0 0) " stroke-linecap="round" />
  <path d="M 195.712 183.13 c -8.968 0 -16.926 2.003 -22.445 5.105 c -0.527 -4.284 1.295 -8.689 5.64 -11.972 c 7.755 -5.88 20.344 -5.88 28.1 0 c 3.501 2.65 5.346 6.031 5.67 9.487 C 207.842 184.102 202.007 183.13 195.712 183.13 z" style="stroke: none; stroke-width: 1; stroke-dasharray: none; stroke-linecap: butt; stroke-linejoin: miter; stroke-miterlimit: 10; fill: #212121; fill-rule: nonzero; opacity: 1;" transform=" matrix(1 0 0 1 0 0) " stroke-linecap="round" />
  <path d="M 260.924 338.801 h -19.983 h -19.991 c -6.445 0 -12.582 -2.748 -16.866 -7.56 l -38.438 -30.088 v 33.882 c 0 0 0 56.471 75.294 56.471 s 75.294 -56.471 75.294 -56.471 v -33.882 l -38.438 30.088 C 273.513 336.053 267.384 338.801 260.924 338.801 z" style="stroke: none; stroke-width: 1; stroke-dasharray: none; stroke-linecap: butt; stroke-linejoin: miter; stroke-miterlimit: 10; fill: #F4D0A1; fill-rule: nonzero; opacity: 1;" transform=" matrix(1 0 0 1 0 0) " stroke-linecap="round" />
  <path d="M 240.941 112.941 c 0 0 -5.707 0 -14.592 0.625 c 0 9.412 0 31.955 0 42.353 c 28.002 0 44.966 -20.209 54.769 -39.409 C 259.087 112.949 240.941 112.941 240.941 112.941 z" style="stroke: none; stroke-width: 1; stroke-dasharray: none; stroke-linecap: butt; stroke-linejoin: miter; stroke-miterlimit: 10; fill: #212121; fill-rule: nonzero; opacity: 1;" transform=" matrix(1 0 0 1 0 0) " stroke-linecap="round" />
  <path d="M 172.567 122.97 c -14.283 4.442 -27.791 10.842 -37.037 20.088 c 0 26.669 17.491 39.529 17.491 39.529 C 150.807 160.331 150.686 145.83 172.567 122.97 z" style="stroke: none; stroke-width: 1; stroke-dasharray: none; stroke-linecap: butt; stroke-linejoin: miter; stroke-miterlimit: 10; fill: #212121; fill-rule: nonzero; opacity: 1;" transform=" matrix(1 0 0 1 0 0) " stroke-linecap="round" />
  <path d="M 179.689 120.937 c 0 7.183 0 21.075 0 34.989 c 21.572 0 38.769 -30.524 44.559 -42.195 C 212.465 114.643 195.968 116.638 179.689 120.937 z" style="stroke: none; stroke-width: 1; stroke-dasharray: none; stroke-linecap: butt; stroke-linejoin: miter; stroke-miterlimit: 10; fill: #212121; fill-rule: nonzero; opacity: 1;" transform=" matrix(1 0 0 1 0 0) " stroke-linecap="round" />
  <path d="M 326.355 129.544 c 0 2.914 0 33.995 0 53.045 c 18.733 0 19.923 -35.087 19.991 -39.529 C 340.909 137.623 334.012 133.195 326.355 129.544 z" style="stroke: none; stroke-width: 1; stroke-dasharray: none; stroke-linecap: butt; stroke-linejoin: miter; stroke-miterlimit: 10; fill: #212121; fill-rule: nonzero; opacity: 1;" transform=" matrix(1 0 0 1 0 0) " stroke-linecap="round" />
  <path d="M 293.022 118.746 c 0 12.762 0 26.549 0 37.18 c 25.254 0 32.565 -23.876 33.265 -26.413 C 315.994 124.619 304.346 121.171 293.022 118.746 z" style="stroke: none; stroke-width: 1; stroke-dasharray: none; stroke-linecap: butt; stroke-linejoin: miter; stroke-miterlimit: 10; fill: #212121; fill-rule: nonzero; opacity: 1;" transform=" matrix(1 0 0 1 0 0) " stroke-linecap="round" />
  <path d="M 204.085 331.241 l -38.438 -30.088 v 33.882 c 0 0 0 56.471 75.294 56.471 v -52.706 h -19.991 C 214.505 338.801 208.369 336.053 204.085 331.241 z" style="stroke: none; stroke-width: 1; stroke-dasharray: none; stroke-linecap: butt; stroke-linejoin: miter; stroke-miterlimit: 10; fill: #F8E0C2; fill-rule: nonzero; opacity: 1;" transform=" matrix(1 0 0 1 0 0) " stroke-linecap="round" />
  <path d="M 86.52 229.233 V 81.506 c -5.248 -1.875 -10.308 -3.712 -15.059 -5.481 v 153.208 c -19.652 12.943 -7.529 51.576 -7.529 71.944 c 7.492 0 11.625 0 13.862 0 c 0.482 0 0.881 0 1.197 0 c 0.979 0 1.265 0 1.19 0 c 2.236 0 6.377 0 13.869 0 C 94.05 280.809 106.18 242.184 86.52 229.233 z" style="stroke: none; stroke-width: 1; stroke-dasharray: none; stroke-linecap: butt; stroke-linejoin: miter; stroke-miterlimit: 10; fill: #EF5451; fill-rule: nonzero; opacity: 1;" transform=" matrix(1 0 0 1 0 0) " stroke-linecap="round" />
  <path d="M 444.235 60.235 C 444.235 52.706 256 0 240.941 0 S 37.647 52.706 37.647 60.235 c 0 4.706 55.959 24.147 97.882 38.046 c 0 12.981 0 28.371 0 44.777 c 30.118 -30.118 105.412 -30.118 105.412 -30.118 s 75.294 0 105.412 30.118 c 0 -16.414 0 -31.797 0 -44.777 C 388.277 84.382 444.235 64.941 444.235 60.235 z" style="stroke: none; stroke-width: 1; stroke-dasharray: none; stroke-linecap: butt; stroke-linejoin: miter; stroke-miterlimit: 10; fill: #212121; fill-rule: nonzero; opacity: 1;" transform=" matrix(1 0 0 1 0 0) " stroke-linecap="round" />
  <polygon points="331.03,339.27 331.29,338.82 316.24,331.29 241.05,368.79 284.68,412.66 " style="stroke: none; stroke-width: 1; stroke-dasharray: none; stroke-linecap: butt; stroke-linejoin: miter; stroke-miterlimit: 10; fill: #FFFFFF; fill-rule: nonzero; opacity: 1;" transform="  matrix(1 0 0 1 0 0) "/>
  <polygon points="271.06,481.88 249.98,405.08 263.53,391.54 240.8,368.78 218.22,391.36 231.91,405.04 210.82,481.88 " style="stroke: none; stroke-width: 1; stroke-dasharray: none; stroke-linecap: butt; stroke-linejoin: miter; stroke-miterlimit: 10; fill: #D32F2F; fill-rule: nonzero; opacity: 1;" transform="  matrix(1 0 0 1 0 0) "/>
  <polygon points="240.94,481.88 240.94,368.92 240.8,368.78 218.22,391.36 231.91,405.04 210.82,481.88 " style="stroke: none; stroke-width: 1; stroke-dasharray: none; stroke-linecap: butt; stroke-linejoin: miter; stroke-miterlimit: 10; fill: #EF5451; fill-rule: nonzero; opacity: 1;" transform="  matrix(1 0 0 1 0 0) "/>
  <polygon points="150.85,339.27 150.59,338.82 165.65,331.29 240.83,368.79 197.21,412.66 " style="stroke: none; stroke-width: 1; stroke-dasharray: none; stroke-linecap: butt; stroke-linejoin: miter; stroke-miterlimit: 10; fill: #FFFFFF; fill-rule: nonzero; opacity: 1;" transform="  matrix(1 0 0 1 0 0) "/>
  <path d="M 0 481.882 l 30.118 -82.824 c 4.631 -10.037 12.785 -18.033 22.904 -22.453 l 97.566 -37.783 l 90.353 143.059 H 0 z" style="stroke: none; stroke-width: 1; stroke-dasharray: none; stroke-linecap: butt; stroke-linejoin: miter; stroke-miterlimit: 10; fill: #212121; fill-rule: nonzero; opacity: 1;" transform=" matrix(1 0 0 1 0 0) " stroke-linecap="round" />
  <path d="M 481.882 481.882 l -30.118 -82.824 c -4.631 -10.037 -12.785 -18.033 -22.912 -22.453 l -97.559 -37.783 l -90.353 143.059 H 481.882 z" style="stroke: none; stroke-width: 1; stroke-dasharray: none; stroke-linecap: butt; stroke-linejoin: miter; stroke-miterlimit: 10; fill: #212121; fill-rule: nonzero; opacity: 1;" transform=" matrix(1 0 0 1 0 0) " stroke-linecap="round" />
  <polygon points="240.94,481.88 150.59,338.82 82.82,361.41 210.82,481.88 " style="stroke: none; stroke-width: 1; stroke-dasharray: none; stroke-linecap: butt; stroke-linejoin: miter; stroke-miterlimit: 10; fill: #979797; fill-rule: nonzero; opacity: 1;" transform="  matrix(1 0 0 1 0 0) "/>
  <polygon points="240.94,481.88 331.29,338.82 399.06,361.41 271.06,481.88 " style="stroke: none; stroke-width: 1; stroke-dasharray: none; stroke-linecap: butt; stroke-linejoin: miter; stroke-miterlimit: 10; fill: #979797; fill-rule: nonzero; opacity: 1;" transform="  matrix(1 0 0 1 0 0) "/>
</g>
</svg>