<svg id="icon-smart-attendance-output" xmlns="http://www.w3.org/2000/svg" viewBox="0 0 143.189 133.219">
  <defs>
    <style>
      .cls-1 {
        fill: #fc6457;
      }

      .cls-2 {
        fill: #8ab460;
      }

      .cls-3 {
        fill: #666;
      }
    </style>
  </defs>
  <g id="Group_268" data-name="Group 268" transform="translate(-843.409 -1883.225)">
    <g id="presentation" transform="translate(858 1905)">
      <g id="Group_273" data-name="Group 273" transform="translate(33.993 35.882)">
        <g id="Group_272" data-name="Group 272">
          <path id="Path_268" data-name="Path 268" class="cls-1" d="M151.554,328a7.554,7.554,0,1,0,7.554,7.554A7.554,7.554,0,0,0,151.554,328Zm0,11.331a3.777,3.777,0,1,1,3.777-3.777A3.777,3.777,0,0,1,151.554,339.331Z" transform="translate(-144 -328)"/>
        </g>
      </g>
      <g id="Group_275" data-name="Group 275" transform="translate(30.216 52.879)">
        <g id="Group_274" data-name="Group 274">
          <path id="Path_269" data-name="Path 269" class="cls-1" d="M139.331,400A11.331,11.331,0,0,0,128,411.331V417a1.889,1.889,0,1,0,3.777,0v-5.666a7.554,7.554,0,0,1,15.108,0V417a1.889,1.889,0,1,0,3.777,0v-5.666A11.331,11.331,0,0,0,139.331,400Z" transform="translate(-128 -400)"/>
        </g>
      </g>
      <g id="Group_300" data-name="Group 300">
        <g id="Group_269" data-name="Group 269" transform="translate(3.777 35.882)">
          <g id="Group_268-2" data-name="Group 268">
            <path id="Path_266" data-name="Path 266" class="cls-2" d="M23.554,328a7.554,7.554,0,1,0,7.554,7.554A7.554,7.554,0,0,0,23.554,328Zm0,11.331a3.777,3.777,0,1,1,3.777-3.777A3.777,3.777,0,0,1,23.554,339.331Z" transform="translate(-16 -328)"/>
          </g>
        </g>
        <g id="Group_271" data-name="Group 271" transform="translate(0 52.879)">
          <g id="Group_270" data-name="Group 270">
            <path id="Path_267" data-name="Path 267" class="cls-2" d="M11.331,400A11.331,11.331,0,0,0,0,411.331V417a1.889,1.889,0,1,0,3.777,0v-5.666a7.554,7.554,0,1,1,15.108,0V417a1.889,1.889,0,1,0,3.777,0v-5.666A11.331,11.331,0,0,0,11.331,400Z" transform="translate(0 -400)"/>
          </g>
        </g>
        <g id="Group_277" data-name="Group 277" transform="translate(64.21 35.882)">
          <g id="Group_276" data-name="Group 276">
            <path id="Path_270" data-name="Path 270" class="cls-2" d="M279.554,328a7.554,7.554,0,1,0,7.554,7.554A7.554,7.554,0,0,0,279.554,328Zm0,11.331a3.777,3.777,0,1,1,3.777-3.777A3.777,3.777,0,0,1,279.554,339.331Z" transform="translate(-272 -328)"/>
          </g>
        </g>
        <g id="Group_279" data-name="Group 279" transform="translate(60.433 52.879)">
          <g id="Group_278" data-name="Group 278">
            <path id="Path_271" data-name="Path 271" class="cls-2" d="M267.331,400A11.331,11.331,0,0,0,256,411.331V417a1.889,1.889,0,1,0,3.777,0v-5.666a7.554,7.554,0,0,1,15.108,0V417a1.889,1.889,0,1,0,3.777,0v-5.666A11.331,11.331,0,0,0,267.331,400Z" transform="translate(-256 -400)"/>
          </g>
        </g>
        <g id="Group_281" data-name="Group 281" transform="translate(94.426 35.882)">
          <g id="Group_280" data-name="Group 280">
            <path id="Path_272" data-name="Path 272" class="cls-2" d="M407.554,328a7.554,7.554,0,1,0,7.554,7.554A7.554,7.554,0,0,0,407.554,328Zm0,11.331a3.777,3.777,0,1,1,3.777-3.777A3.777,3.777,0,0,1,407.554,339.331Z" transform="translate(-400 -328)"/>
          </g>
        </g>
        <g id="Group_283" data-name="Group 283" transform="translate(90.649 52.879)">
          <g id="Group_282" data-name="Group 282">
            <path id="Path_273" data-name="Path 273" class="cls-2" d="M395.331,400A11.342,11.342,0,0,0,384,411.331V417a1.889,1.889,0,1,0,3.777,0v-5.666a7.554,7.554,0,1,1,15.108,0V417a1.889,1.889,0,0,0,3.777,0v-5.666A11.342,11.342,0,0,0,395.331,400Z" transform="translate(-384 -400)"/>
          </g>
        </g>
        <g id="Group_285" data-name="Group 285" transform="translate(3.777)">
          <g id="Group_284" data-name="Group 284">
            <path id="Path_274" data-name="Path 274" class="cls-2" d="M23.554,176a7.554,7.554,0,1,0,7.554,7.554A7.554,7.554,0,0,0,23.554,176Zm0,11.331a3.777,3.777,0,1,1,3.777-3.777A3.777,3.777,0,0,1,23.554,187.331Z" transform="translate(-16 -176)"/>
          </g>
        </g>
        <g id="Group_287" data-name="Group 287" transform="translate(0 16.997)">
          <g id="Group_286" data-name="Group 286">
            <path id="Path_275" data-name="Path 275" class="cls-2" d="M11.331,248A11.331,11.331,0,0,0,0,259.331V265a1.889,1.889,0,1,0,3.777,0v-5.666a7.554,7.554,0,1,1,15.108,0V265a1.889,1.889,0,1,0,3.777,0v-5.666A11.331,11.331,0,0,0,11.331,248Z" transform="translate(0 -248)"/>
          </g>
        </g>
        <g id="Group_289" data-name="Group 289" transform="translate(33.993)">
          <g id="Group_288" data-name="Group 288">
            <path id="Path_276" data-name="Path 276" class="cls-2" d="M151.554,176a7.554,7.554,0,1,0,7.554,7.554A7.554,7.554,0,0,0,151.554,176Zm0,11.331a3.777,3.777,0,1,1,3.777-3.777A3.777,3.777,0,0,1,151.554,187.331Z" transform="translate(-144 -176)"/>
          </g>
        </g>
        <g id="Group_291" data-name="Group 291" transform="translate(30.216 16.997)">
          <g id="Group_290" data-name="Group 290">
            <path id="Path_277" data-name="Path 277" class="cls-2" d="M139.331,248A11.331,11.331,0,0,0,128,259.331V265a1.889,1.889,0,0,0,3.777,0v-5.666a7.554,7.554,0,1,1,15.108,0V265a1.889,1.889,0,1,0,3.777,0v-5.666A11.331,11.331,0,0,0,139.331,248Z" transform="translate(-128 -248)"/>
          </g>
        </g>
        <g id="Group_293" data-name="Group 293" transform="translate(64.21)">
          <g id="Group_292" data-name="Group 292">
            <path id="Path_278" data-name="Path 278" class="cls-2" d="M279.554,176a7.554,7.554,0,1,0,7.554,7.554A7.554,7.554,0,0,0,279.554,176Zm0,11.331a3.777,3.777,0,1,1,3.777-3.777A3.777,3.777,0,0,1,279.554,187.331Z" transform="translate(-272 -176)"/>
          </g>
        </g>
        <g id="Group_295" data-name="Group 295" transform="translate(60.433 16.997)">
          <g id="Group_294" data-name="Group 294">
            <path id="Path_279" data-name="Path 279" class="cls-2" d="M267.331,248A11.331,11.331,0,0,0,256,259.331V265a1.889,1.889,0,1,0,3.777,0v-5.666a7.554,7.554,0,1,1,15.108,0V265a1.889,1.889,0,1,0,3.777,0v-5.666A11.331,11.331,0,0,0,267.331,248Z" transform="translate(-256 -248)"/>
          </g>
        </g>
      </g>
      <g id="Group_297" data-name="Group 297" transform="translate(94.426 0)">
        <g id="Group_296" data-name="Group 296">
          <path id="Path_280" data-name="Path 280" class="cls-1" d="M407.554,176a7.554,7.554,0,1,0,7.554,7.554A7.554,7.554,0,0,0,407.554,176Zm0,11.331a3.777,3.777,0,1,1,3.777-3.777A3.777,3.777,0,0,1,407.554,187.331Z" transform="translate(-400 -176)"/>
        </g>
      </g>
      <g id="Group_299" data-name="Group 299" transform="translate(90.649 16.997)">
        <g id="Group_298" data-name="Group 298">
          <path id="Path_281" data-name="Path 281" class="cls-1" d="M395.331,248A11.342,11.342,0,0,0,384,259.331V265a1.889,1.889,0,1,0,3.777,0v-5.666a7.554,7.554,0,1,1,15.108,0V265a1.889,1.889,0,0,0,3.777,0v-5.666A11.342,11.342,0,0,0,395.331,248Z" transform="translate(-384 -248)"/>
        </g>
      </g>
    </g>
    <path id="checked" class="cls-2" d="M.166,9.07a.533.533,0,0,1,0-.772l.772-.772a.533.533,0,0,1,.772,0l.055.055L4.8,10.835a.267.267,0,0,0,.386,0l7.394-7.67h.055a.533.533,0,0,1,.772,0l.772.772a.533.533,0,0,1,0,.772h0L5.352,13.87a.533.533,0,0,1-.772,0L.276,9.235.166,9.07Z" transform="translate(874.42 1910.813)"/>
    <path id="checked-2" data-name="checked" class="cls-2" d="M.166,9.07a.533.533,0,0,1,0-.772l.772-.772a.533.533,0,0,1,.772,0l.055.055L4.8,10.835a.267.267,0,0,0,.386,0l7.394-7.67h.055a.533.533,0,0,1,.772,0l.772.772a.533.533,0,0,1,0,.772h0L5.352,13.87a.533.533,0,0,1-.772,0L.276,9.235.166,9.07Z" transform="translate(905.401 1910.397)"/>
    <path id="checked-3" data-name="checked" class="cls-2" d="M.166,9.07a.533.533,0,0,1,0-.772l.772-.772a.533.533,0,0,1,.772,0l.055.055L4.8,10.835a.267.267,0,0,0,.386,0l7.394-7.67h.055a.533.533,0,0,1,.772,0l.772.772a.533.533,0,0,1,0,.772h0L5.352,13.87a.533.533,0,0,1-.772,0L.276,9.235.166,9.07Z" transform="translate(936.381 1910.397)"/>
    <path id="checked-4" data-name="checked" class="cls-2" d="M.166,9.07a.533.533,0,0,1,0-.772l.772-.772a.533.533,0,0,1,.772,0l.055.055L4.8,10.835a.267.267,0,0,0,.386,0l7.394-7.67h.055a.533.533,0,0,1,.772,0l.772.772a.533.533,0,0,1,0,.772h0L5.352,13.87a.533.533,0,0,1-.772,0L.276,9.235.166,9.07Z" transform="translate(936.381 1948.794)"/>
    <path id="checked-5" data-name="checked" class="cls-2" d="M.166,9.07a.533.533,0,0,1,0-.772l.772-.772a.533.533,0,0,1,.772,0l.055.055L4.8,10.835a.267.267,0,0,0,.386,0l7.394-7.67h.055a.533.533,0,0,1,.772,0l.772.772a.533.533,0,0,1,0,.772h0L5.352,13.87a.533.533,0,0,1-.772,0L.276,9.235.166,9.07Z" transform="translate(967.236 1948.223)"/>
    <path id="checked-6" data-name="checked" class="cls-2" d="M.166,9.07a.533.533,0,0,1,0-.772l.772-.772a.533.533,0,0,1,.772,0l.055.055L4.8,10.835a.267.267,0,0,0,.386,0l7.394-7.67h.055a.533.533,0,0,1,.772,0l.772.772a.533.533,0,0,1,0,.772h0L5.352,13.87a.533.533,0,0,1-.772,0L.276,9.235.166,9.07Z" transform="translate(874.768 1948.639)"/>
  </g>
  <path id="Path_307" data-name="Path 307" class="cls-3" d="M137.754,16.364H5.435A5.441,5.441,0,0,0,0,21.8V122.094a5.442,5.442,0,0,0,5.435,5.435H55.341v17.483H33.789a2.285,2.285,0,1,0,0,4.57H109.4a2.285,2.285,0,1,0,0-4.57H87.849V127.529h49.905a5.441,5.441,0,0,0,5.435-5.435V21.8A5.442,5.442,0,0,0,137.754,16.364ZM83.279,145.012H59.91V127.529H83.279Zm55.34-22.918a.877.877,0,0,1-.866.866H5.435a.877.877,0,0,1-.866-.866V21.8a.877.877,0,0,1,.866-.866H137.754a.877.877,0,0,1,.866.866Z" transform="translate(0 -16.364)"/>
</svg>
