<?xml version="1.0"?>
<svg xmlns="http://www.w3.org/2000/svg" height="512px" viewBox="-1 0 512 512" width="512px"><path d="m358.691406 272.09375c.007813.027344.019532.054688.027344.082031.003906.007813.003906.019531.007812.027344-.019531-.058594-.03125-.105469-.039062-.128906 0 .003906 0 .011719.003906.019531zm0 0" fill="#007fcc"/><path d="m506.921875 281.902344c-1.167969-4.003906-5.359375-6.296875-9.351563-5.128906-4.003906 1.15625-6.296874 5.347656-5.140624 9.339843 2.0625 7.082031 3.105468 14.433594 3.105468 21.875 0 6.183594-5.027344 11.214844-11.210937 11.214844h-19.664063v-29.292969c0-4.167968-3.375-7.542968-7.542968-7.542968-4.164063 0-7.542969 3.375-7.542969 7.542968v29.289063h-30.921875l-7.691406-24.0625c2.390624-2.453125 3.929687-5.761719 4.101562-9.425781 8.832031 4.90625 19.792969.152343 22.214844-7.289063l13.125-41.355469c11.65625 5.421875 21.914062 13.75 29.878906 24.539063 2.472656 3.351562 7.199219 4.054687 10.550781 1.589843 3.347657-2.484374 4.0625-7.199218 1.585938-10.550781-11.03125-14.933593-26.238281-26.085937-43.332031-32.289062l-14.652344-15.289063c13.050781-10.941406 21.769531-23.269531 25.480468-35.761718 25.089844-6.359376 32.546876-38.457032 12.792969-55.242188v-79.859375c0-19.179687-20.804687-34.203125-47.367187-34.203125h-106.761719c-7.230469 0-12.894531 4.886719-12.894531 11.121094 0 6.191406-.003906 6.667968.011718 6.789062.039063 1.347656.804688 20.648438 11.9375 41.0625v50.023438c-26.847656 11.414062-25.507812 49.746094 1.789063 59.445312 3.683594 13.234375 13.015625 26.316406 27.164063 37.8125l-13.457032 14.039063c-35.882812 12.972656-61.597656 47.386719-61.597656 87.695312 0 14.503907 11.796875 26.296875 26.289062 26.296875h186.503907c14.5 0 26.296875-11.792968 26.296875-26.296875 0-8.859375-1.246094-17.640625-3.699219-26.085937zm-44.964844-147.523438c1.980469.21875 3.855469.304688 6.195313-.976562 2.082031 6.769531-.265625 14.253906-6.195313 18.566406zm-144.324219 15.296875c-5.828124-6.414062-5.835937-16.1875 0-22.609375zm119.34375 79.839844c-9.785156 30.824219-7.734374 24.359375-13.667968 43.050781v.003906c-.863282.300782.898437 1.132813-23.574219-14.714843v-.011719c27.992187-47.511719-3.722656 6.328125 24.511719-41.601562zm-45.851562 13.234375c-.011719.019531-.019531.03125-.027344.042969-.003906.007812-.003906.011719-.007812.019531 0 0-.003906.003906-.003906.003906-.003907.003906-.007813.011719-.007813.015625-.015625-.023437-.023437-.039062-.035156-.058593-.007813-.011719-.015625-.027344-.027344-.042969.003906.003906.007813.007812.011719.011719-.027344-.042969-.046875-.074219-.0625-.101563.003906.003906.003906.007813.007812.011719-.007812-.011719-.011718-.019532-.019531-.03125.003906.003906.007813.011718.011719.015625-.035156-.054688-.058594-.097657-.054688-.085938-.554687-.945312-2.753906-4.679687-10.261718-17.429687 7.328124 2.085937 12.429687 2.128906 21.449218-.996094-7.929687 13.457031-10.257812 17.40625-10.84375 18.40625 0 0-.023437.03125-.066406.109375-.023438.042969-.042969.074219-.058594.101563 0-.003907 0-.003907 0-.003907 0 .003907-.003906.007813-.003906.011719zm-.046875 27.464844 8.917969 5.78125c0 .226562 0 8.570312 0 8.4375h-17.847656c0-.261719 0-8.949219 0-8.4375zm-70.308594-255.128906h104.570313c17.5 0 32.285156 8.757812 32.285156 19.117187v83.863281c-3.761719-1.015625-7.363281-2.363281-10.753906-3.902344-20.769532-9.398437-22.835938-18.3125-30.390625-18.3125-6.113281 0-10.613281 5.625-8.566407 11.363282l.179688.503906c-17.539062-12.59375-32.113281-30.863281-38.417969-39.394531-5.425781-7.320313-18.015625-2.757813-16.3125 6.46875l.464844 2.484375c-9.515625-6.507813-16.28125-14.421875-21.109375-22.328125-7.628906-12.488281-11.558594-27.640625-11.949219-37.390625zm15.117188 154.652343c-2.011719-4.527343-3.167969-9.222656-3.167969-14.007812v-.746094c0-21.464844 0-52.0625 0-75.707031 6.6875 6.738281 15.054688 12.914062 25.484375 17.8125 4.441406 2.085937 9.972656.417968 12.1875-3.933594 11.292969 12.78125 27.40625 28.207031 45.195313 36.484375 6.078124 2.832031 13.476562-1.425781 13.0625-8.214844 6.589843 4.109375 13.144531 7.210938 18.222656 9.011719-.714844 22.917969 1.769531 27.789062-2.945313 38.789062-9.292969 21.8125-41.382812 42.296876-54.125 42.296876-11.925781 0-43.980469-19.316407-53.914062-41.785157zm22.011719 46.503907c9.550781 16.207031 14.546874 24.695312 24.519531 41.601562v.011719c-24.570313 15.914062-22.640625 14.96875-23.574219 14.722656.003906.003906.003906.007813.003906.007813 0-.003907-.003906-.015626-.011718-.03125.003906.007812.007812.015624.007812.023437-.007812-.023437-.011719-.042969-.019531-.066406-.003907-.019531-.011719-.039063-.019531-.0625.007812.019531.011718.042969.019531.058593-.015625-.042968-.027344-.085937-.039063-.121093-.003906-.003907-.003906-.011719-.003906-.015625v.003906c-.003906-.003906-.003906-.003906-.003906-.007812-.007813-.03125-.019532-.0625-.03125-.101563-.007813-.023437-.015625-.042969-.019532-.0625.003907.007813.003907.011719.003907.015625-.003907-.011719-.007813-.027344-.011719-.042969-.011719-.035156-.019531-.0625-.027344-.082031 0-.007812-.003906-.011719-.003906-.019531-.003906-.003907-.003906-.007813-.003906-.011719-.003906-.007812-.003906-.007812-.003906-.007812-.632813-1.992188-3.375-10.632813-13.5-42.539063zm.929687 56.277343v-.003906zm5.367187 46.679688h-31.621093v-29.289063c0-4.167968-3.375-7.542968-7.542969-7.542968-4.164062 0-7.542969 3.375-7.542969 7.542968v29.292969h-19.667969c-6.175781 0-11.203124-5.03125-11.203124-11.214844 0-31.304687 18.503906-58.371093 45.15625-70.820312 13.902343 43.625 13.027343 41.398437 13.667968 42.589843 4.191406 7.636719 14.113282 10.132813 21.640625 5.953126.179688 3.832031 1.851563 7.273437 4.457031 9.757812zm15.789063 0 6.09375-19.679688h10.441406l6.292969 19.679688zm0 0" fill="#007fcc"/><path d="m358.785156 272.386719c.007813.023437.011719.042969.019532.0625-.007813-.023438-.015626-.046875-.023438-.074219 0 .003906 0 .007812.003906.011719zm0 0" fill="#007fcc"/><path d="m391.222656 242.582031c-.023437.042969-.058594.105469-.089844.15625.019532-.039062.039063-.070312.054688-.09375.011719-.019531.023438-.039062.035156-.0625zm0 0" fill="#007fcc"/><path d="m391.027344 242.742188c.003906.011718.011718.019531.015625.03125.011719.015624.015625.027343.023437.035156-.011718-.015625-.027344-.039063-.039062-.066406zm0 0" fill="#007fcc"/><path d="m431.847656 138.515625c0 4.226563-3.425781 7.65625-7.65625 7.65625-4.226562 0-7.65625-3.429687-7.65625-7.65625 0-4.230469 3.429688-7.65625 7.65625-7.65625 4.230469 0 7.65625 3.425781 7.65625 7.65625zm0 0" fill="#007fcc"/><path d="m365.613281 138.515625c0 4.226563-3.425781 7.65625-7.65625 7.65625-4.226562 0-7.65625-3.429687-7.65625-7.65625 0-4.230469 3.429688-7.65625 7.65625-7.65625 4.230469 0 7.65625 3.425781 7.65625 7.65625zm0 0" fill="#007fcc"/><path d="m366.75 120.082031c4.082031.84375 8.0625-1.773437 8.910156-5.847656.847656-4.078125-1.769531-8.074219-5.847656-8.925781-9.042969-1.890625-22.347656-2.019532-30.734375 3.253906-3.527344 2.21875-4.589844 6.875-2.371094 10.398438 2.210938 3.523437 6.863281 4.59375 10.398438 2.371093 2.15625-1.355469 5.886719-2.101562 10.503906-2.101562 4.886719 0 9.035156.828125 9.140625.851562zm0 0" fill="#007fcc"/><path d="m391.074219 191.089844c22.105469 0 29.132812-29.808594 14.726562-29.808594-4.164062 0-7.539062 3.375-7.539062 7.542969 0 3.960937-3.222657 7.183593-7.1875 7.183593-3.960938 0-7.183594-3.222656-7.183594-7.183593 0-4.167969-3.375-7.542969-7.542969-7.542969-14.355468 0-7.394531 29.808594 14.726563 29.808594zm0 0" fill="#007fcc"/><path d="m391.074219 349.085938c-44.914063 0-81.453125 36.539062-81.453125 81.457031 0 44.914062 36.539062 81.453125 81.453125 81.453125 44.914062 0 81.457031-36.539063 81.457031-81.453125 0-44.917969-36.542969-81.457031-81.457031-81.457031zm0 147.824218c-36.597657 0-66.371094-29.769531-66.371094-66.367187 0-36.597657 29.773437-66.375 66.371094-66.375 36.597656 0 66.371093 29.777343 66.371093 66.375 0 36.597656-29.773437 66.367187-66.371093 66.367187zm0 0" fill="#007fcc"/><path d="m434.121094 387.496094c-2.945313-2.945313-7.71875-2.945313-10.664063 0l-32.378906 32.378906-32.378906-32.378906c-2.949219-2.945313-7.722657-2.945313-10.667969 0-2.945312 2.945312-2.945312 7.722656 0 10.664062l32.378906 32.382813-32.378906 32.378906c-2.945312 2.945313-2.945312 7.71875 0 10.664063 1.472656 1.472656 3.402344 2.210937 5.332031 2.210937 1.929688 0 3.863281-.738281 5.335938-2.210937l32.378906-32.378907 32.378906 32.378907c1.472657 1.472656 3.402344 2.210937 5.332031 2.210937 1.929688 0 3.863282-.738281 5.335938-2.210937 2.945312-2.945313 2.945312-7.71875 0-10.664063l-32.378906-32.378906 32.378906-32.382813c2.941406-2.941406 2.941406-7.71875-.003906-10.664062zm0 0" fill="#007fcc"/><path d="m177.492188 220.292969-14.59375-15.226563c13.054687-10.941406 21.785156-23.269531 25.496093-35.761718 13.816407-3.507813 24.054688-16.039063 24.054688-30.933594 0-14.140625-9.242188-26.15625-22.015625-30.332032v-8.558593h1.902344c6.125 0 11.121093-4.988281 11.121093-11.121094v-51.007813c0-9.203124-4.65625-17.339843-11.746093-22.175781v-3.289062c0-6.226563-5.570313-11.09375-12.679688-11.09375h-102.761719c-25.722656 0-45.867187 14.90625-45.867187 33.933593v52.566407c0 7.832031 6.625 14.179687 15.699218 15.648437v6.054688c-11.425781 4.855468-19.460937 16.191406-19.460937 29.375 0 13.859375 8.878906 25.675781 21.25 30.070312 3.691406 13.234375 13.023437 26.316406 27.164063 37.8125l-13.457032 14.039063c-35.882812 12.972656-61.597656 47.386719-61.597656 87.695312 0 14.503907 11.796875 26.296875 26.289062 26.296875h186.511719c14.492188 0 26.289063-11.792968 26.289063-26.296875 0-40.308593-25.714844-74.722656-61.597656-87.695312zm12.941406-95.507813c4.195312 3.054688 6.929687 8.003906 6.929687 13.585938 0 5.582031-2.734375 10.539062-6.929687 13.597656zm-144.332032 24.890625c-2.714843-2.988281-4.375-6.960937-4.375-11.304687s1.660157-8.316406 4.375-11.304688zm119.34375 79.839844c-2.019531 6.363281-11.65625 36.714844-13.667968 43.050781v.003906c-.855469.308594.792968 1.066407-23.574219-14.714843v-.011719c.546875-.925781 22.292969-37.820312 24.519531-41.601562zm-45.898437 13.3125s-.003906 0-.003906.003906c-.003907-.007812-10.367188-17.609375-10.425781-17.710937 7.300781 2.078125 12.421874 2.140625 21.449218-1.007813-3.742187 6.355469-5.773437 9.804688-11.019531 18.714844zm8.929687 33.167969c0 .226562 0 8.570312 0 8.4375h-17.863281c0-.261719 0-8.949219 0-8.4375l8.929688-5.78125zm59.445313-241.863282c.8125 2.859376.289063.484376.453125 50.261719-5.480469 0-12.804688 0-15.929688 0-6.488281 0-11.757812-5.269531-11.757812-11.746093v-5.105469c10.617188-8.890625 21.566406-20.78125 27.234375-33.410157zm-123.570313 135.605469c-4.421874-9.957031-3.167968-11.410156-3.167968-66.476562 1.742187-.074219 12.554687.582031 29.316406-2.5625 4.09375-.773438 6.789062-4.71875 6.015625-8.8125-.773437-4.089844-4.71875-6.785157-8.8125-6.023438-16.996094 3.210938-28.070313 2.066407-37.550781 2.3125-1.523438 0-3.59375-.386719-4.664063-1.375v-52.074219c0-5.710937 4.402344-10.921874 11.203125-14.410156 5.359375-2.757812 12.226563-4.4375 19.578125-4.4375h100.359375c0 .179688 0 2.648438 0 2.503906 0 14-19.03125 32.871094-31.027344 41.898438-8.636718 6.527344-18.894531 12.601562-30.523437 17.417969-3.851563 1.589843-5.679687 6.003906-4.082031 9.855469 1.589844 3.851562 6.003906 5.671874 9.847656 4.082031 8.917969-3.691407 17.46875-8.257813 25.339844-13.394531 2.585937 12.117187 13.378906 21.238281 26.261718 21.238281h2.90625c0 60.234375 1.0625 60.386719-2.949218 69.746093-4.453125 10.457032-13.457032 19.972657-23.039063 27.3125-.011719 0-.011719.011719-.011719.011719-7.242187 5.546875-22.453124 14.972657-31.085937 14.972657-11.597656 0-43.847656-19.019532-53.914063-41.785157zm22.015626 46.503907c.097656.160156 12.363281 20.984374 24.519531 41.601562v.011719c-24.6875 15.988281-22.714844 14.953125-23.5625 14.734375v.003906c-9.691407-30.527344-9.335938-29.398438-13.679688-43.078125zm6.296874 102.957031h-31.621093v-29.289063c0-4.167968-3.375-7.542968-7.539063-7.542968-4.167968 0-7.542968 3.375-7.542968 7.542968v29.292969h-19.671876c-6.175781 0-11.203124-5.03125-11.203124-11.214844 0-31.304687 18.503906-58.378906 45.164062-70.828125 13.761719 43.191406 12.972656 41.296875 13.667969 42.597656 4.085937 7.484376 13.964843 10.207032 21.632812 5.953126.179688 3.832031 1.847657 7.273437 4.453125 9.757812zm15.789063 0 6.09375-19.679688h10.449219l6.292968 19.679688zm104.347656.003906h-19.671875v-29.292969c0-4.167968-3.375-7.542968-7.542968-7.542968-4.164063 0-7.539063 3.375-7.539063 7.542968v29.289063h-30.925781l-7.695313-24.0625c2.40625-2.453125 3.945313-5.761719 4.113281-9.425781 7.683594 4.261718 17.554688 1.511718 21.632813-5.953126.699219-1.300781-.113281.648438 13.667969-42.597656 26.660156 12.449219 45.164062 39.523438 45.164062 70.828125 0 6.183594-5.027344 11.214844-11.203125 11.214844zm0 0" fill="#007fcc"/><path d="m149.363281 131.613281c-7.324219 3.492188-4.820312 14.5625 3.296875 14.5625 4.226563 0 7.65625-3.429687 7.65625-7.664062 0-5.683594-5.964844-9.316407-10.953125-6.898438zm0 0" fill="#007fcc"/><path d="m143.882812 120.078125c2.441407-.511719 6.867188-1.015625 11.113282-.804687 8.902344.4375 8.171875 3.21875 12.53125 3.21875 7.589844 0 10.839844-10.34375 3.136718-14.453126-11.246093-6.355468-27.9375-3.125-29.859374-2.726562-4.074219.847656-6.699219 4.839844-5.84375 8.921875.84375 4.074219 4.847656 6.699219 8.921874 5.84375zm0 0" fill="#007fcc"/><path d="m89.726562 131.613281c-4.984374-2.417969-10.953124 1.214844-10.953124 6.898438 0 5.726562 6.019531 9.296875 10.882812 6.9375 5.828125-2.6875 5.933594-11.042969.070312-13.835938zm0 0" fill="#007fcc"/><path d="m95.21875 120.078125c4.0625.84375 8.0625-1.769531 8.910156-5.84375.855469-4.082031-1.769531-8.074219-5.84375-8.921875-9.207031-1.9375-22.324218-1.976562-30.742187 3.25-6.40625 4.027344-3.488281 13.929688 4.019531 13.929688 1.378906 0 2.765625-.371094 4.015625-1.15625 4.5625-2.878907 14.359375-2.328126 19.640625-1.257813zm0 0" fill="#007fcc"/><path d="m97.277344 168.824219c0 18.40625 21.054687 28.679687 35.574218 17.847656 7.664063-5.738281 11.375-17.390625 7.339844-22.503906-4.40625-5.671875-13.464844-2.410157-13.464844 4.65625 0 3.960937-3.21875 7.179687-7.183593 7.179687-3.960938 0-7.179688-3.21875-7.179688-7.179687 0-4.121094-3.351562-7.542969-7.542969-7.542969-4.25 0-7.542968 3.476562-7.542968 7.542969zm0 0" fill="#007fcc"/><path d="m119.542969 349.082031c-44.910157 0-81.457031 36.542969-81.457031 81.457031 0 44.914063 36.546874 81.460938 81.457031 81.460938 44.914062 0 81.460937-36.546875 81.460937-81.460938 0-44.914062-36.546875-81.457031-81.460937-81.457031zm0 147.832031c-36.59375 0-66.371094-29.777343-66.371094-66.375 0-36.59375 29.777344-66.375 66.371094-66.375 36.597656 0 66.375 29.78125 66.375 66.375 0 36.597657-29.777344 66.375-66.375 66.375zm0 0" fill="#007fcc"/><path d="m156.242188 391.957031-50.570313 60.617188-22.863281-26.972657c-2.695313-3.175781-7.453125-3.570312-10.628906-.875-3.179688 2.695313-3.570313 7.453126-.878907 10.628907l28.664063 33.8125c1.433594 1.691406 3.539062 2.667969 5.753906 2.667969h.027344c2.226562-.011719 4.335937-1.003907 5.761718-2.710938l56.320313-67.503906c2.667969-3.199219 2.238281-7.953125-.960937-10.621094-3.199219-2.671875-7.957032-2.238281-10.625.957031zm0 0" fill="#007fcc"/></svg>
