<svg xmlns="http://www.w3.org/2000/svg" viewBox="0 0 134.747 134.896">
  <g id="time-saving" transform="translate(0 0)">
    <path id="Path_365" data-name="Path 365" d="M5.555,255.294A63.226,63.226,0,0,1,4.5,246.685a2.252,2.252,0,1,0-4.5.243,67.763,67.763,0,0,0,1.124,9.218,2.248,2.248,0,0,0,2.2,1.821,2.347,2.347,0,0,0,.429-.041,2.25,2.25,0,0,0,1.795-2.632Zm0,0" transform="translate(0 -175.828)"/>
    <path id="Path_366" data-name="Path 366" d="M45.007,365.041a2.249,2.249,0,0,0-3.7,2.561,67.416,67.416,0,0,0,5.805,7.253,2.248,2.248,0,1,0,3.312-3.042A63.145,63.145,0,0,1,45.007,365.041Zm0,0" transform="translate(-29.412 -261.758)"/>
    <path id="Path_367" data-name="Path 367" d="M2.531,194.32a1.323,1.323,0,0,0,.187,0,2.248,2.248,0,0,0,2.248-2.064,62.3,62.3,0,0,1,1.309-8.575,2.252,2.252,0,0,0-4.4-.985,67.427,67.427,0,0,0-1.414,9.2,2.247,2.247,0,0,0,2.066,2.425Zm0,0" transform="translate(-0.329 -130.089)"/>
    <path id="Path_368" data-name="Path 368" d="M94.819,416.583a62.873,62.873,0,0,1-7.055-5.052A2.248,2.248,0,1,0,84.9,415a68.227,68.227,0,0,0,7.556,5.412,2.249,2.249,0,1,0,2.363-3.822Zm0,0" transform="translate(-60.453 -295.509)"/>
    <path id="Path_369" data-name="Path 369" d="M15.9,138.974a2.249,2.249,0,0,0,2.9-1.313,61.36,61.36,0,0,1,2.592-5.944,2.248,2.248,0,0,0-4.022-2.01,67.611,67.611,0,0,0-2.781,6.371A2.248,2.248,0,0,0,15.9,138.974Zm0,0" transform="translate(-10.385 -92.373)"/>
    <path id="Path_370" data-name="Path 370" d="M16.484,308.693a2.249,2.249,0,1,0-4.256,1.457,68.009,68.009,0,0,0,3.617,8.564,2.249,2.249,0,0,0,4.011-2.031A62.834,62.834,0,0,1,16.484,308.693Zm0,0" transform="translate(-8.704 -220.847)"/>
    <path id="Path_371" data-name="Path 371" d="M149.9,447.71a62.593,62.593,0,0,1-8.165-2.923,2.248,2.248,0,0,0-1.8,4.119,67.848,67.848,0,0,0,8.755,3.147,2.31,2.31,0,0,0,.611.086,2.248,2.248,0,0,0,.609-4.413Zm0,0" transform="translate(-99.685 -319.673)"/>
    <path id="Path_372" data-name="Path 372" d="M38.208,277.4a2.249,2.249,0,0,0,4.159-1.711,50.212,50.212,0,0,1-2.6-8.2,2.25,2.25,0,0,0-4.393.974A55.065,55.065,0,0,0,38.208,277.4Zm0,0" transform="translate(-25.397 -191.05)"/>
    <path id="Path_373" data-name="Path 373" d="M43,154.091a2.25,2.25,0,0,0,2.819-1.47,54.013,54.013,0,0,1,3.222-8,2.249,2.249,0,1,0-4.018-2.023,58.583,58.583,0,0,0-3.493,8.665A2.248,2.248,0,0,0,43,154.091Zm0,0" transform="translate(-29.787 -101.635)"/>
    <path id="Path_374" data-name="Path 374" d="M36.18,213.151v-.431a58.009,58.009,0,0,1,.674-8.076,2.248,2.248,0,1,0-4.444-.674,62.43,62.43,0,0,0-.727,8.689v.6a2.2,2.2,0,0,0,2.248,2.2A2.293,2.293,0,0,0,36.18,213.151Zm0,0" transform="translate(-22.78 -145.244)"/>
    <path id="Path_375" data-name="Path 375" d="M109.675,380.978a62.4,62.4,0,0,1-6.663-5.548,2.248,2.248,0,0,0-3.11,3.246,66.386,66.386,0,0,0,7.148,5.953,2.249,2.249,0,0,0,2.626-3.651Zm0,0" transform="translate(-71.356 -269.5)"/>
    <path id="Path_376" data-name="Path 376" d="M162.158,415.39a51.42,51.42,0,0,1-7.957-3.268,2.248,2.248,0,1,0-2.045,4,56.123,56.123,0,0,0,8.655,3.555,2.249,2.249,0,1,0,1.349-4.29Zm0,0" transform="translate(-108.514 -296.126)"/>
    <path id="Path_377" data-name="Path 377" d="M67.975,335.959a2.249,2.249,0,0,0,.358-3.158,63.934,63.934,0,0,1-4.947-7.139,2.248,2.248,0,1,0-3.858,2.3,68.688,68.688,0,0,0,5.29,7.645,2.247,2.247,0,0,0,3.16.355Zm0,0" transform="translate(-42.531 -233.287)"/>
    <path id="Path_378" data-name="Path 378" d="M101.642,0a67.175,67.175,0,0,0-36.4,10.647L56.081.724A2.248,2.248,0,0,0,52.2,1.952L47.7,35.675A2.249,2.249,0,0,0,50.248,38.2l31.475-4.5a2.248,2.248,0,0,0,1.33-3.75l-8.467-9.171A53.957,53.957,0,1,1,101.642,121.4h-.027a43.851,43.851,0,0,1-5.312-.324,2.249,2.249,0,1,0-.539,4.465,48.6,48.6,0,0,0,5.845.356h.034A58.454,58.454,0,1,0,69.862,18.417a2.248,2.248,0,0,0-.424,3.409l7.42,8.031-24.3,3.476L56.025,7.293,63.22,15.1a2.248,2.248,0,0,0,2.922.333,62.95,62.95,0,1,1,35.5,114.961,63.741,63.741,0,0,1-8.654-.588,2.248,2.248,0,0,0-.614,4.454A67.447,67.447,0,1,0,101.642,0Zm0,0" transform="translate(-34.284 0)"/>
    <path id="Path_379" data-name="Path 379" d="M233.932,88a2.248,2.248,0,0,0-2.248,2.248v40.468a2.249,2.249,0,0,0,.659,1.59l22.482,22.482A2.248,2.248,0,0,0,258,151.609L236.18,129.785V90.248A2.248,2.248,0,0,0,233.932,88Zm0,0" transform="translate(-166.574 -63.27)"/>
  </g>
</svg>
